<?xml version="1.0" encoding="UTF-8"?>
<svg id="Layer_1" data-name="Layer 1" xmlns="http://www.w3.org/2000/svg" viewBox="0 0 1024 1024">
  <defs>
    <style>
      .cls-1 {
        fill: #4f4f4f;
      }
    </style>
  </defs>
  <path class="cls-1" d="M478.5,.8c-2.2,.2-9.2,.9-15.5,1.4C317.72,15.3,181.63,93.69,95.44,214.18,47.45,281.17,16.75,357.17,5.15,437.66c-4.1,28.1-4.6,36.4-4.6,74.49s.5,46.4,4.6,74.49c27.8,192.08,164.48,353.47,349.87,413.26,33.2,10.7,68.19,18,107.99,22.4,15.5,1.7,82.49,1.7,97.99,0,68.69-7.6,126.89-24.6,184.28-53.89,8.8-4.5,10.5-5.7,9.3-6.7-.8-.6-38.3-50.9-83.29-111.69l-81.79-110.49-102.49-151.69c-56.39-83.39-102.79-151.59-103.19-151.59-.4-.1-.8,67.29-1,149.59-.3,144.09-.4,149.89-2.2,153.29-2.6,4.9-4.6,6.9-8.8,9.1-3.2,1.6-6,1.9-21.1,1.9h-17.3l-4.6-2.9c-3-1.9-5.2-4.4-6.7-7.3l-2.1-4.5,.2-200.48,.3-200.58,3.1-3.9c1.6-2.1,5-4.8,7.4-6.1,4.1-2,5.7-2.2,23-2.2,20.4,0,23.8,.8,29.1,6.6,1.5,1.6,56.99,85.19,123.39,185.88s157.18,238.18,201.78,305.67l80.99,122.69,4.1-2.7c36.3-23.6,74.69-57.19,105.09-92.19,64.69-74.29,106.39-164.88,120.39-261.47,4.1-28.1,4.6-36.4,4.6-74.49s-.5-46.4-4.6-74.49c-27.8-192.08-164.48-353.47-349.87-413.26-32.7-10.6-67.49-17.9-106.49-22.3C552.9,1.1,486.8,0,478.5,.8h0Zm209.38,309.37c4.8,2.4,8.7,7,10.1,11.8,.8,2.6,1,58.19,.8,183.48l-.3,179.78-31.7-48.6-31.8-48.6v-130.69c0-84.49,.4-131.99,1-134.29,1.6-5.6,5.1-10,9.9-12.6,4.1-2.1,5.6-2.3,21.3-2.3,14.8,0,17.4,.2,20.7,2h0Z"/>
  <path d="M784.27,945.21c-3.5,2.2-4.6,3.7-1.5,2,2.2-1.3,5.8-4,5.2-4.1-.3,0-2,1-3.7,2.1Zm-6.9,4.5c-1.8,1.4-1.8,1.5,.4,.4,1.2-.6,2.2-1.3,2.2-1.5,0-.8-.5-.6-2.6,1.1h0Zm-5,3c-1.8,1.4-1.8,1.5,.4,.4,1.2-.6,2.2-1.3,2.2-1.5,0-.8-.5-.6-2.6,1.1h0Zm-5,3c-1.8,1.4-1.8,1.5,.4,.4,1.2-.6,2.2-1.3,2.2-1.5,0-.8-.5-.6-2.6,1.1h0Zm-7.6,4c-3.8,2-3.6,2.8,.2,.9,1.7-.9,3-1.8,3-2,0-.7-.1-.6-3.2,1.1Z"/>
</svg>